<svg xmlns="http://www.w3.org/2000/svg" xmlns:xlink="http://www.w3.org/1999/xlink" viewBox="0 0 144.53 144.43"><defs><style>.cls-1{fill:url(#linear-gradient);}.cls-2{fill:url(#linear-gradient-2);}.cls-3{fill:url(#linear-gradient-3);}.cls-4{fill:url(#linear-gradient-4);}.cls-5{fill:url(#linear-gradient-5);}.cls-6{fill:url(#linear-gradient-6);}.cls-7{fill:url(#linear-gradient-7);}.cls-8{fill:url(#linear-gradient-8);}.cls-9{fill:url(#linear-gradient-9);}.cls-10{fill:url(#linear-gradient-10);}.cls-11{fill:url(#linear-gradient-11);}.cls-12{fill:url(#linear-gradient-12);}.cls-13{fill:url(#linear-gradient-13);}.cls-14{fill:url(#linear-gradient-14);}.cls-15{fill:url(#linear-gradient-15);}.cls-16{fill:url(#linear-gradient-16);}.cls-17{fill:url(#linear-gradient-17);}.cls-18{fill:url(#linear-gradient-18);}.cls-19{fill:url(#linear-gradient-19);}.cls-20{fill:url(#linear-gradient-20);}.cls-21{fill:url(#linear-gradient-21);}.cls-22{fill:url(#linear-gradient-22);}.cls-23{fill:url(#linear-gradient-23);}.cls-24{fill:url(#linear-gradient-24);}.cls-25{fill:url(#linear-gradient-25);}.cls-26{fill:url(#linear-gradient-26);}.cls-27{fill:url(#linear-gradient-27);}.cls-28{fill:url(#linear-gradient-28);}.cls-29{fill:url(#linear-gradient-29);}.cls-30{fill:url(#linear-gradient-30);}.cls-31{fill:url(#linear-gradient-31);}.cls-32{fill:url(#linear-gradient-32);}.cls-33{fill:url(#linear-gradient-33);}.cls-34{fill:url(#linear-gradient-34);}.cls-35{fill:url(#linear-gradient-35);}.cls-36{fill:url(#linear-gradient-36);}.cls-37{fill:url(#linear-gradient-37);}.cls-38{fill:url(#linear-gradient-38);}.cls-39{fill:url(#linear-gradient-39);}.cls-40{fill:url(#linear-gradient-40);}.cls-41{fill:url(#linear-gradient-41);}.cls-42{fill:url(#linear-gradient-42);}.cls-43{fill:url(#linear-gradient-43);}.cls-44{fill:url(#linear-gradient-44);}.cls-45{fill:url(#linear-gradient-45);}.cls-46{fill:url(#linear-gradient-46);}.cls-47{fill:url(#linear-gradient-47);}.cls-48{fill:url(#linear-gradient-48);}.cls-49{fill:url(#linear-gradient-49);}.cls-50{fill:url(#linear-gradient-50);}.cls-51{fill:url(#linear-gradient-51);}.cls-52{fill:url(#linear-gradient-52);}.cls-53{fill:url(#linear-gradient-53);}.cls-54{fill:url(#linear-gradient-54);}.cls-55{fill:url(#linear-gradient-55);}.cls-56{fill:url(#linear-gradient-56);}.cls-57{fill:url(#linear-gradient-57);}.cls-58{fill:url(#linear-gradient-58);}.cls-59{fill:url(#linear-gradient-59);}.cls-60{fill:url(#linear-gradient-60);}.cls-61{fill:url(#linear-gradient-61);}.cls-62{fill:url(#linear-gradient-62);}.cls-63{fill:url(#linear-gradient-63);}.cls-64{fill:url(#linear-gradient-64);}.cls-65{fill:url(#linear-gradient-65);}.cls-66{fill:url(#linear-gradient-66);}.cls-67{fill:url(#linear-gradient-67);}.cls-68{fill:url(#linear-gradient-68);}.cls-69{fill:url(#linear-gradient-69);}.cls-70{fill:url(#linear-gradient-70);}.cls-71{fill:url(#linear-gradient-71);}.cls-72{fill:url(#linear-gradient-72);}.cls-73{fill:url(#linear-gradient-73);}.cls-74{fill:url(#linear-gradient-74);}.cls-75{fill:url(#linear-gradient-75);}.cls-76{fill:url(#linear-gradient-76);}.cls-77{fill:url(#linear-gradient-77);}.cls-78{fill:url(#linear-gradient-78);}.cls-79{fill:url(#linear-gradient-79);}.cls-80{fill:url(#linear-gradient-80);}.cls-81{fill:url(#linear-gradient-81);}.cls-82{fill:url(#linear-gradient-82);}.cls-83{fill:url(#linear-gradient-83);}.cls-84{fill:url(#linear-gradient-84);}.cls-85{fill:url(#linear-gradient-85);}.cls-86{fill:url(#linear-gradient-86);}.cls-87{fill:url(#linear-gradient-87);}.cls-88{fill:#9fd1e8;fill-rule:evenodd;}.cls-89{fill:#fff;}</style><linearGradient id="linear-gradient" x1="-500.77" y1="616.89" x2="-500" y2="616.13" gradientTransform="matrix(65, 0, 0, -55, 32513.54, 34004.23)" gradientUnits="userSpaceOnUse"><stop offset="0" stop-color="#2772b4"/><stop offset="1" stop-color="#277dc0"/></linearGradient><linearGradient id="linear-gradient-2" x1="-500.82" y1="616.32" x2="-500.14" y2="615.64" gradientTransform="matrix(52, 0, 0, -39, 26042.34, 24142.82)" gradientUnits="userSpaceOnUse"><stop offset="0" stop-color="#226cae"/><stop offset="1" stop-color="#1c6aae"/></linearGradient><linearGradient id="linear-gradient-3" x1="-500.35" y1="617.51" x2="-499.71" y2="616.87" gradientTransform="matrix(65, 0, 0, -68, 32513.54, 42087.16)" gradientUnits="userSpaceOnUse"><stop offset="0" stop-color="#2770b1"/><stop offset="1" stop-color="#2575b7"/></linearGradient><linearGradient id="linear-gradient-4" x1="-503.82" y1="616.33" x2="-503.06" y2="615.57" gradientTransform="matrix(63, 0, 0, -40, 31875.95, 24765.59)" gradientUnits="userSpaceOnUse"><stop offset="0" stop-color="#277dbf"/><stop offset="1" stop-color="#2776b8"/></linearGradient><linearGradient id="linear-gradient-5" x1="-502.56" y1="616.78" x2="-501.69" y2="615.91" gradientTransform="matrix(59, 0, 0, -55, 29688.81, 33895.23)" gradientUnits="userSpaceOnUse"><stop offset="0" stop-color="#28a4ea"/><stop offset="1" stop-color="#28a3e8"/></linearGradient><linearGradient id="linear-gradient-6" x1="-501.79" y1="614.43" x2="-501.15" y2="613.78" gradientTransform="matrix(68, 0, 0, -26, 34195.91, 16048.8)" gradientUnits="userSpaceOnUse"><stop offset="0" stop-color="#2787c4"/><stop offset="1" stop-color="#2788c4"/></linearGradient><linearGradient id="linear-gradient-7" x1="-501.75" y1="617.52" x2="-501.05" y2="616.81" gradientTransform="matrix(80, 0, 0, -63, 40223.49, 38980.31)" gradientUnits="userSpaceOnUse"><stop offset="0" stop-color="#2888c4"/><stop offset="1" stop-color="#2881bf"/></linearGradient><linearGradient id="linear-gradient-8" x1="-502.59" y1="617.91" x2="-501.94" y2="617.26" gradientTransform="matrix(66, 0, 0, -78, 33268.33, 48261.87)" gradientUnits="userSpaceOnUse"><stop offset="0" stop-color="#278ac7"/><stop offset="1" stop-color="#2787c5"/></linearGradient><linearGradient id="linear-gradient-9" x1="-505.6" y1="616.08" x2="-504.68" y2="615.16" gradientTransform="matrix(49, 0, 0, -39, 24902.96, 24106.82)" gradientUnits="userSpaceOnUse"><stop offset="0" stop-color="#2788ca"/><stop offset="1" stop-color="#2785c8"/></linearGradient><linearGradient id="linear-gradient-10" x1="-504.19" y1="617.07" x2="-503.36" y2="616.23" gradientTransform="matrix(63, 0, 0, -53, 31875.95, 32783.69)" gradientUnits="userSpaceOnUse"><stop offset="0" stop-color="#2781c4"/><stop offset="1" stop-color="#2781c5"/></linearGradient><linearGradient id="linear-gradient-11" x1="-501.36" y1="616.19" x2="-500.67" y2="615.5" gradientTransform="matrix(90, 0, 0, -40, 45191.4, 24751.59)" gradientUnits="userSpaceOnUse"><stop offset="0" stop-color="#2782bf"/><stop offset="1" stop-color="#277dbc"/></linearGradient><linearGradient id="linear-gradient-12" x1="-506.15" y1="616.15" x2="-505.15" y2="615.15" gradientTransform="matrix(32, 0, 0, -39, 16256.52, 24062.82)" gradientUnits="userSpaceOnUse"><stop offset="0" stop-color="#278fce"/><stop offset="1" stop-color="#2896d7"/></linearGradient><linearGradient id="linear-gradient-13" x1="-506.14" y1="617.12" x2="-505.23" y2="616.22" gradientTransform="matrix(32, 0, 0, -51, 16256.52, 31503.15)" gradientUnits="userSpaceOnUse"><stop offset="0" stop-color="#278cca"/><stop offset="1" stop-color="#278ecd"/></linearGradient><linearGradient id="linear-gradient-14" x1="-506.72" y1="615.24" x2="-506.04" y2="614.56" gradientTransform="matrix(30, 0, 0, -32, 15262.95, 19695.42)" gradientUnits="userSpaceOnUse"><stop offset="0" stop-color="#289be0"/><stop offset="1" stop-color="#2898da"/></linearGradient><linearGradient id="linear-gradient-15" x1="-502.04" y1="616.89" x2="-501.36" y2="616.21" gradientTransform="matrix(68, 0, 0, -51, 34195.91, 31503.15)" gradientUnits="userSpaceOnUse"><stop offset="0" stop-color="#278bc8"/><stop offset="1" stop-color="#2891cf"/></linearGradient><linearGradient id="linear-gradient-16" x1="-508.49" y1="617.05" x2="-507.69" y2="616.26" gradientTransform="matrix(24, 0, 0, -55, 12252.2, 33895.23)" gradientUnits="userSpaceOnUse"><stop offset="0" stop-color="#28a3e9"/><stop offset="1" stop-color="#289ee5"/></linearGradient><linearGradient id="linear-gradient-17" x1="-500.09" y1="617.98" x2="-499.35" y2="617.25" gradientTransform="matrix(62, 0, 0, -81, 30986.16, 50089.18)" gradientUnits="userSpaceOnUse"><stop offset="0" stop-color="#2775bb"/><stop offset="1" stop-color="#2272b7"/></linearGradient><linearGradient id="linear-gradient-18" x1="-500.78" y1="617.65" x2="-499.41" y2="616.29" gradientTransform="matrix(57, 0, 0, -55, 28502.23, 34004.23)" gradientUnits="userSpaceOnUse"><stop offset="0" stop-color="#266eb0"/><stop offset="1" stop-color="#2271b5"/></linearGradient><linearGradient id="linear-gradient-19" x1="-501.5" y1="615.25" x2="-500.82" y2="614.57" gradientTransform="matrix(38, 0, 0, -30, 19044.27, 18561.88)" gradientUnits="userSpaceOnUse"><stop offset="0" stop-color="#1d67ac"/><stop offset="1" stop-color="#1f69ad"/></linearGradient><linearGradient id="linear-gradient-20" x1="-502.75" y1="616.99" x2="-502.07" y2="616.31" gradientTransform="matrix(40, 0, 0, -50, 20133.85, 30926.38)" gradientUnits="userSpaceOnUse"><stop offset="0" stop-color="#277dbe"/><stop offset="1" stop-color="#2781c2"/></linearGradient><linearGradient id="linear-gradient-21" x1="-500.49" y1="617.17" x2="-499.72" y2="616.41" xlink:href="#linear-gradient"/><linearGradient id="linear-gradient-22" x1="-500.85" y1="617.42" x2="-500.07" y2="616.65" gradientTransform="matrix(59, 0, 0, -60, 29554.81, 37069)" gradientUnits="userSpaceOnUse"><stop offset="0" stop-color="#2783c7"/><stop offset="1" stop-color="#2786ca"/></linearGradient><linearGradient id="linear-gradient-23" x1="-502.2" y1="616.12" x2="-501.5" y2="615.43" gradientTransform="matrix(44, 0, 0, -40, 22108.02, 24633.59)" gradientUnits="userSpaceOnUse"><stop offset="0" stop-color="#2790d9"/><stop offset="1" stop-color="#2791d8"/></linearGradient><linearGradient id="linear-gradient-24" x1="-503" y1="617.4" x2="-502.22" y2="616.62" gradientTransform="matrix(40, 0, 0, -60, 20133.85, 37069)" gradientUnits="userSpaceOnUse"><stop offset="0" stop-color="#2783c5"/><stop offset="1" stop-color="#2788ca"/></linearGradient><linearGradient id="linear-gradient-25" x1="-503.04" y1="614.46" x2="-502.04" y2="613.46" gradientTransform="matrix(42, 0, 0, -27, 21151.44, 16589.57)" gradientUnits="userSpaceOnUse"><stop offset="0" stop-color="#2895dc"/><stop offset="1" stop-color="#2794db"/></linearGradient><linearGradient id="linear-gradient-26" x1="-500.97" y1="616.19" x2="-500.05" y2="615.28" gradientTransform="matrix(59, 0, 0, -40, 29554.81, 24667.59)" gradientUnits="userSpaceOnUse"><stop offset="0" stop-color="#2783c9"/><stop offset="1" stop-color="#278bd1"/></linearGradient><linearGradient id="linear-gradient-27" x1="-516.29" y1="615.4" x2="-515.14" y2="614.24" gradientTransform="matrix(10, 0, 0, -34, 5173.12, 20914.96)" gradientUnits="userSpaceOnUse"><stop offset="0" stop-color="#278dd7"/><stop offset="1" stop-color="#278dd5"/></linearGradient><linearGradient id="linear-gradient-28" x1="-501.77" y1="616.06" x2="-501.06" y2="615.35" gradientTransform="matrix(49, 0, 0, -40, 24586.96, 24633.59)" gradientUnits="userSpaceOnUse"><stop offset="0" stop-color="#278fd7"/><stop offset="1" stop-color="#278cd3"/></linearGradient><linearGradient id="linear-gradient-29" x1="-499.7" y1="616.23" x2="-499.05" y2="615.57" gradientTransform="matrix(72, 0, 0, -40, 35964.11, 24667.59)" gradientUnits="userSpaceOnUse"><stop offset="0" stop-color="#287bc1"/><stop offset="1" stop-color="#2782c8"/></linearGradient><linearGradient id="linear-gradient-30" x1="-499.92" y1="615.87" x2="-499.24" y2="615.19" gradientTransform="matrix(72, 0, 0, -37, 35964.11, 22782.27)" gradientUnits="userSpaceOnUse"><stop offset="0" stop-color="#287cc3"/><stop offset="1" stop-color="#2784cc"/></linearGradient><linearGradient id="linear-gradient-31" x1="-500.81" y1="614.42" x2="-500.13" y2="613.74" gradientTransform="matrix(53, 0, 0, -27, 26527.13, 16583.57)" gradientUnits="userSpaceOnUse"><stop offset="0" stop-color="#2786cf"/><stop offset="1" stop-color="#278bd4"/></linearGradient><linearGradient id="linear-gradient-32" x1="-501.45" y1="614.95" x2="-500.63" y2="614.13" gradientTransform="matrix(63, 0, 0, -29, 31604.95, 17830.11)" gradientUnits="userSpaceOnUse"><stop offset="0" stop-color="#2792d8"/><stop offset="1" stop-color="#2897dd"/></linearGradient><linearGradient id="linear-gradient-33" x1="-509.11" y1="615.75" x2="-508.46" y2="615.11" gradientTransform="matrix(21, 0, 0, -36, 10739.82, 22161.5)" gradientUnits="userSpaceOnUse"><stop offset="0" stop-color="#289ae1"/><stop offset="1" stop-color="#299adf"/></linearGradient><linearGradient id="linear-gradient-34" x1="-508.31" y1="615.69" x2="-507.57" y2="614.96" gradientTransform="matrix(24, 0, 0, -36, 12252.2, 22161.5)" gradientUnits="userSpaceOnUse"><stop offset="0" stop-color="#289ce2"/><stop offset="1" stop-color="#289adf"/></linearGradient><linearGradient id="linear-gradient-35" x1="-507.62" y1="615.06" x2="-506.77" y2="614.21" gradientTransform="matrix(26, 0, 0, -29, 13249.78, 17836.11)" gradientUnits="userSpaceOnUse"><stop offset="0" stop-color="#289be0"/><stop offset="1" stop-color="#2898db"/></linearGradient><linearGradient id="linear-gradient-36" x1="-501.96" y1="617.06" x2="-501.28" y2="616.38" gradientTransform="matrix(53, 0, 0, -55, 26627.13, 33970.23)" gradientUnits="userSpaceOnUse"><stop offset="0" stop-color="#278cd0"/><stop offset="1" stop-color="#2789c9"/></linearGradient><linearGradient id="linear-gradient-37" x1="-501.2" y1="615.64" x2="-500.5" y2="614.94" gradientTransform="matrix(63, 0, 0, -34, 31604.95, 20954.96)" gradientUnits="userSpaceOnUse"><stop offset="0" stop-color="#2790d4"/><stop offset="1" stop-color="#2892d4"/></linearGradient><linearGradient id="linear-gradient-38" x1="-504.78" y1="615.22" x2="-503.85" y2="614.29" gradientTransform="matrix(36, 0, 0, -31, 18217.69, 19098.65)" gradientUnits="userSpaceOnUse"><stop offset="0" stop-color="#2996d8"/><stop offset="1" stop-color="#2893d4"/></linearGradient><linearGradient id="linear-gradient-39" x1="-504.63" y1="616.24" x2="-503.87" y2="615.48" gradientTransform="matrix(36, 0, 0, -39, 18217.69, 24062.82)" gradientUnits="userSpaceOnUse"><stop offset="0" stop-color="#278ecc"/><stop offset="1" stop-color="#2791d2"/></linearGradient><linearGradient id="linear-gradient-40" x1="-503.62" y1="616.85" x2="-503" y2="616.22" gradientTransform="matrix(39, 0, 0, -50, 19671.06, 30926.38)" gradientUnits="userSpaceOnUse"><stop offset="0" stop-color="#277dbd"/><stop offset="1" stop-color="#2781c0"/></linearGradient><linearGradient id="linear-gradient-41" x1="-501.56" y1="616.97" x2="-500.87" y2="616.28" gradientTransform="matrix(59, 0, 0, -49, 29626.81, 30336.59)" gradientUnits="userSpaceOnUse"><stop offset="0" stop-color="#277bbb"/><stop offset="1" stop-color="#277cbb"/></linearGradient><linearGradient id="linear-gradient-42" x1="-504.08" y1="616.98" x2="-503.47" y2="616.37" gradientTransform="matrix(35, 0, 0, -51, 17684.9, 31525.15)" gradientUnits="userSpaceOnUse"><stop offset="0" stop-color="#2784c4"/><stop offset="1" stop-color="#2785c4"/></linearGradient><linearGradient id="linear-gradient-43" x1="-505.8" y1="616.9" x2="-505.03" y2="616.13" gradientTransform="matrix(31, 0, 0, -51, 15727.73, 31525.15)" gradientUnits="userSpaceOnUse"><stop offset="0" stop-color="#278ac9"/><stop offset="1" stop-color="#2786c4"/></linearGradient><linearGradient id="linear-gradient-44" x1="-502.97" y1="616.08" x2="-502.05" y2="615.16" gradientTransform="matrix(50, 0, 0, -37, 25185.75, 22862.27)" gradientUnits="userSpaceOnUse"><stop offset="0" stop-color="#2788c5"/><stop offset="1" stop-color="#2784c1"/></linearGradient><linearGradient id="linear-gradient-45" x1="-501.43" y1="616.84" x2="-500.73" y2="616.13" gradientTransform="matrix(70, 0, 0, -49, 35141.49, 30336.59)" gradientUnits="userSpaceOnUse"><stop offset="0" stop-color="#277ebc"/><stop offset="1" stop-color="#277bba"/></linearGradient><linearGradient id="linear-gradient-46" x1="-501.33" y1="616.9" x2="-500.64" y2="616.2" gradientTransform="matrix(70, 0, 0, -48, 35141.49, 29694.82)" gradientUnits="userSpaceOnUse"><stop offset="0" stop-color="#2780bd"/><stop offset="1" stop-color="#2782bf"/></linearGradient><linearGradient id="linear-gradient-47" x1="-503.01" y1="616.77" x2="-502.2" y2="615.96" gradientTransform="matrix(54, 0, 0, -48, 27226.92, 29694.82)" gradientUnits="userSpaceOnUse"><stop offset="0" stop-color="#2784c1"/><stop offset="1" stop-color="#2780be"/></linearGradient><linearGradient id="linear-gradient-48" x1="-506.45" y1="616.5" x2="-505.49" y2="615.54" gradientTransform="matrix(34, 0, 0, -40, 17291.11, 24751.59)" gradientUnits="userSpaceOnUse"><stop offset="0" stop-color="#277dbc"/><stop offset="1" stop-color="#2780bd"/></linearGradient><linearGradient id="linear-gradient-49" x1="-505.64" y1="615.83" x2="-504.71" y2="614.9" gradientTransform="matrix(42, 0, 0, -34, 21321.44, 20972.96)" gradientUnits="userSpaceOnUse"><stop offset="0" stop-color="#288fcd"/><stop offset="1" stop-color="#2792d1"/></linearGradient><linearGradient id="linear-gradient-50" x1="-502.22" y1="616.6" x2="-501.5" y2="615.87" gradientTransform="matrix(61, 0, 0, -47, 30694.39, 28977.05)" gradientUnits="userSpaceOnUse"><stop offset="0" stop-color="#299ee2"/><stop offset="1" stop-color="#289de1"/></linearGradient><linearGradient id="linear-gradient-51" x1="-502.72" y1="616.37" x2="-501.89" y2="615.54" gradientTransform="matrix(61, 0, 0, -45, 30694.39, 27707.44)" gradientUnits="userSpaceOnUse"><stop offset="0" stop-color="#28a0e5"/><stop offset="1" stop-color="#28a4e9"/></linearGradient><linearGradient id="linear-gradient-52" x1="-503.1" y1="618.15" x2="-502.32" y2="617.38" gradientTransform="matrix(55, 0, 0, -87, 27737.71, 53767.8)" gradientUnits="userSpaceOnUse"><stop offset="0" stop-color="#2899da"/><stop offset="1" stop-color="#2898d9"/></linearGradient><linearGradient id="linear-gradient-53" x1="-502.82" y1="617.96" x2="-502.13" y2="617.27" gradientTransform="matrix(62, 0, 0, -87, 31253.16, 53767.8)" gradientUnits="userSpaceOnUse"><stop offset="0" stop-color="#2893d1"/><stop offset="1" stop-color="#289bdd"/></linearGradient><linearGradient id="linear-gradient-54" x1="-502.36" y1="617.03" x2="-501.68" y2="616.34" gradientTransform="matrix(67, 0, 0, -53, 33742.12, 32695.69)" gradientUnits="userSpaceOnUse"><stop offset="0" stop-color="#28a1e5"/><stop offset="1" stop-color="#289dde"/></linearGradient><linearGradient id="linear-gradient-55" x1="-511.98" y1="616.17" x2="-511.01" y2="615.19" gradientTransform="matrix(24, 0, 0, -39, 12399.2, 24051.82)" gradientUnits="userSpaceOnUse"><stop offset="0" stop-color="#2897d6"/><stop offset="1" stop-color="#2897d6"/></linearGradient><linearGradient id="linear-gradient-56" x1="-512.06" y1="616.12" x2="-511.37" y2="615.43" gradientTransform="matrix(24, 0, 0, -40, 12399.2, 24651.59)" gradientUnits="userSpaceOnUse"><stop offset="0" stop-color="#289ada"/><stop offset="1" stop-color="#299ee0"/></linearGradient><linearGradient id="linear-gradient-57" x1="-515.87" y1="615.8" x2="-515.19" y2="615.12" gradientTransform="matrix(19, 0, 0, -37, 9915.24, 22775.27)" gradientUnits="userSpaceOnUse"><stop offset="0" stop-color="#29a3e7"/><stop offset="1" stop-color="#29a0e2"/></linearGradient><linearGradient id="linear-gradient-58" x1="-515.81" y1="617" x2="-515.19" y2="616.38" gradientTransform="matrix(19, 0, 0, -56, 9915.24, 34532)" gradientUnits="userSpaceOnUse"><stop offset="0" stop-color="#29a4e8"/><stop offset="1" stop-color="#28a1e5"/></linearGradient><linearGradient id="linear-gradient-59" x1="-505.45" y1="616.89" x2="-504.69" y2="616.13" gradientTransform="matrix(48, 0, 0, -56, 24367.17, 34532)" gradientUnits="userSpaceOnUse"><stop offset="0" stop-color="#28a4e9"/><stop offset="1" stop-color="#28a1e4"/></linearGradient><linearGradient id="linear-gradient-60" x1="-503.69" y1="616.08" x2="-503" y2="615.38" gradientTransform="matrix(60, 0, 0, -39, 30323.6, 24051.82)" gradientUnits="userSpaceOnUse"><stop offset="0" stop-color="#2893d1"/><stop offset="1" stop-color="#2896d7"/></linearGradient><linearGradient id="linear-gradient-61" x1="-505.79" y1="617.56" x2="-505.09" y2="616.86" gradientTransform="matrix(45, 0, 0, -69, 22876.81, 42605.93)" gradientUnits="userSpaceOnUse"><stop offset="0" stop-color="#299cde"/><stop offset="1" stop-color="#289bde"/></linearGradient><linearGradient id="linear-gradient-62" x1="-505.63" y1="614.5" x2="-504.95" y2="613.81" gradientTransform="matrix(49, 0, 0, -27, 24902.96, 16644.57)" gradientUnits="userSpaceOnUse"><stop offset="0" stop-color="#278bcd"/><stop offset="1" stop-color="#278dd0"/></linearGradient><linearGradient id="linear-gradient-63" x1="-504.04" y1="617.39" x2="-503.41" y2="616.76" gradientTransform="matrix(64, 0, 0, -69, 32374.75, 42605.93)" gradientUnits="userSpaceOnUse"><stop offset="0" stop-color="#289ee3"/><stop offset="1" stop-color="#2897db"/></linearGradient><linearGradient id="linear-gradient-64" x1="-503.85" y1="616.78" x2="-503.15" y2="616.07" gradientTransform="matrix(64, 0, 0, -50, 32374.75, 30874.38)" gradientUnits="userSpaceOnUse"><stop offset="0" stop-color="#278dd1"/><stop offset="1" stop-color="#2894d7"/></linearGradient><linearGradient id="linear-gradient-65" x1="-505.48" y1="617.86" x2="-504.71" y2="617.1" gradientTransform="matrix(45, 0, 0, -78, 22856.81, 48261.87)" gradientUnits="userSpaceOnUse"><stop offset="0" stop-color="#278bc9"/><stop offset="1" stop-color="#2784c4"/></linearGradient><linearGradient id="linear-gradient-66" x1="-503.46" y1="615.39" x2="-502.79" y2="614.72" gradientTransform="matrix(60, 0, 0, -32, 30323.6, 19743.42)" gradientUnits="userSpaceOnUse"><stop offset="0" stop-color="#278fcd"/><stop offset="1" stop-color="#278ece"/></linearGradient><linearGradient id="linear-gradient-67" x1="-508.17" y1="617.23" x2="-507.43" y2="616.49" gradientTransform="matrix(35, 0, 0, -55, 17902.9, 34030.23)" gradientUnits="userSpaceOnUse"><stop offset="0" stop-color="#277fbf"/><stop offset="1" stop-color="#2784c5"/></linearGradient><linearGradient id="linear-gradient-68" x1="-523.99" y1="616.01" x2="-523.33" y2="615.35" gradientTransform="matrix(14, 0, 0, -37, 7470.29, 22869.27)" gradientUnits="userSpaceOnUse"><stop offset="0" stop-color="#2788c9"/><stop offset="1" stop-color="#2785c7"/></linearGradient><linearGradient id="linear-gradient-69" x1="-522.81" y1="615.83" x2="-521.47" y2="614.49" gradientTransform="matrix(15, 0, 0, -32, 7968.08, 19743.42)" gradientUnits="userSpaceOnUse"><stop offset="0" stop-color="#288ccc"/><stop offset="1" stop-color="#278dce"/></linearGradient><linearGradient id="linear-gradient-70" x1="-508.49" y1="614.25" x2="-507.18" y2="612.94" gradientTransform="matrix(35, 0, 0, -23, 17902.9, 14229.48)" gradientUnits="userSpaceOnUse"><stop offset="0" stop-color="#287dbd"/><stop offset="1" stop-color="#277dbf"/></linearGradient><linearGradient id="linear-gradient-71" x1="-514.66" y1="616.43" x2="-513.88" y2="615.66" gradientTransform="matrix(22, 0, 0, -40, 11454.62, 24765.59)" gradientUnits="userSpaceOnUse"><stop offset="0" stop-color="#277dbf"/><stop offset="1" stop-color="#2778b9"/></linearGradient><linearGradient id="linear-gradient-72" x1="-509.88" y1="617" x2="-508.76" y2="615.88" gradientTransform="matrix(29, 0, 0, -46, 14910.15, 28505.28)" gradientUnits="userSpaceOnUse"><stop offset="0" stop-color="#287aba"/><stop offset="1" stop-color="#2676b7"/></linearGradient><linearGradient id="linear-gradient-73" x1="-504.71" y1="617.08" x2="-503.84" y2="616.2" gradientTransform="matrix(51, 0, 0, -46, 25861.55, 28505.28)" gradientUnits="userSpaceOnUse"><stop offset="0" stop-color="#2777b8"/><stop offset="1" stop-color="#2573b5"/></linearGradient><linearGradient id="linear-gradient-74" x1="-501.07" y1="616.69" x2="-500.28" y2="615.9" gradientTransform="matrix(90, 0, 0, -43, 45191.4, 26647.9)" gradientUnits="userSpaceOnUse"><stop offset="0" stop-color="#287ab9"/><stop offset="1" stop-color="#2778b8"/></linearGradient><linearGradient id="linear-gradient-75" x1="-503.8" y1="617.13" x2="-502.8" y2="616.13" gradientTransform="matrix(55, 0, 0, -44, 27803.71, 27267.67)" gradientUnits="userSpaceOnUse"><stop offset="0" stop-color="#2573b4"/><stop offset="1" stop-color="#2777b7"/></linearGradient><linearGradient id="linear-gradient-76" x1="-506.38" y1="616.38" x2="-505.7" y2="615.7" gradientTransform="matrix(35, 0, 0, -40, 17812.9, 24791.59)" gradientUnits="userSpaceOnUse"><stop offset="0" stop-color="#2879b8"/><stop offset="1" stop-color="#2675b5"/></linearGradient><linearGradient id="linear-gradient-77" x1="-502.91" y1="616.21" x2="-502.12" y2="615.42" gradientTransform="matrix(50, 0, 0, -37, 25205.75, 22925.27)" gradientUnits="userSpaceOnUse"><stop offset="0" stop-color="#2778b7"/><stop offset="1" stop-color="#277ab9"/></linearGradient><linearGradient id="linear-gradient-78" x1="-504.82" y1="616.24" x2="-503.8" y2="615.22" gradientTransform="matrix(40, 0, 0, -37, 20261.85, 22925.27)" gradientUnits="userSpaceOnUse"><stop offset="0" stop-color="#277bba"/><stop offset="1" stop-color="#287ab9"/></linearGradient><linearGradient id="linear-gradient-79" x1="-503.9" y1="616.24" x2="-503.01" y2="615.35" gradientTransform="matrix(46, 0, 0, -35, 23248.6, 21692.73)" gradientUnits="userSpaceOnUse"><stop offset="0" stop-color="#287ab9"/><stop offset="1" stop-color="#2777b6"/></linearGradient><linearGradient id="linear-gradient-80" x1="-502.23" y1="617.46" x2="-501.6" y2="616.82" gradientTransform="matrix(50, 0, 0, -60, 25146.75, 37174)" gradientUnits="userSpaceOnUse"><stop offset="0" stop-color="#2778b8"/><stop offset="1" stop-color="#2473b4"/></linearGradient><linearGradient id="linear-gradient-81" x1="-501.57" y1="616.64" x2="-500.87" y2="615.94" gradientTransform="matrix(59, 0, 0, -44, 29626.81, 27257.67)" gradientUnits="userSpaceOnUse"><stop offset="0" stop-color="#2779b9"/><stop offset="1" stop-color="#2777b6"/></linearGradient><linearGradient id="linear-gradient-82" x1="-508.57" y1="617.6" x2="-507.84" y2="616.86" gradientTransform="matrix(20, 0, 0, -61, 10206.03, 37793.77)" gradientUnits="userSpaceOnUse"><stop offset="0" stop-color="#2575b6"/><stop offset="1" stop-color="#1d6eb2"/></linearGradient><linearGradient id="linear-gradient-83" x1="-502.67" y1="617.71" x2="-501.87" y2="616.91" gradientTransform="matrix(40, 0, 0, -61, 20128.85, 37793.77)" gradientUnits="userSpaceOnUse"><stop offset="0" stop-color="#1b6eb2"/><stop offset="1" stop-color="#1f71b4"/></linearGradient><linearGradient id="linear-gradient-84" x1="-501.81" y1="616.72" x2="-500.81" y2="615.71" gradientTransform="matrix(48, 0, 0, -43, 24103.17, 26637.9)" gradientUnits="userSpaceOnUse"><stop offset="0" stop-color="#1c6db1"/><stop offset="1" stop-color="#2372b4"/></linearGradient><linearGradient id="linear-gradient-85" x1="-501.97" y1="617.61" x2="-501.3" y2="616.94" gradientTransform="matrix(48, 0, 0, -68, 24103.17, 42087.16)" gradientUnits="userSpaceOnUse"><stop offset="0" stop-color="#277bbd"/><stop offset="1" stop-color="#2475b6"/></linearGradient><linearGradient id="linear-gradient-86" x1="-500.95" y1="616.18" x2="-500.28" y2="615.51" xlink:href="#linear-gradient-2"/><linearGradient id="linear-gradient-87" x1="-500.21" y1="617.66" x2="-499.57" y2="617.01" xlink:href="#linear-gradient-3"/></defs><title>Asset 4</title><g id="Layer_2" data-name="Layer 2"><g id="OBJECTS"><polygon class="cls-1" points="0.1 105.67 0 106.17 0.1 106.06 0.1 105.67"/><polygon class="cls-2" points="0 106.17 0.1 106.94 0.1 106.36 0 106.17"/><polygon class="cls-3" points="0.1 106.06 0 106.17 0.1 106.36 0.1 106.06"/><path class="cls-4" d="M142.2,123.91a32.54,32.54,0,0,0,2.34-12.12v-.62l-3.85-2.1Z"/><polygon class="cls-5" points="68.07 0 67.51 0 67.59 1.08 68.07 0"/><polygon class="cls-6" points="95.49 95.56 100.99 70.5 74.27 81.1 95.49 95.56"/><polygon class="cls-7" points="95.49 95.56 126.93 131.24 100.99 70.5 95.49 95.56"/><polygon class="cls-8" points="100.99 70.5 126.93 131.24 117.5 56.04 100.99 70.5"/><polygon class="cls-9" points="140.68 109.06 144.53 100.88 144.53 72.85 139.11 73.39 140.68 109.06"/><polygon class="cls-10" points="144.53 111.16 144.53 100.88 140.68 109.06 144.53 111.16"/><polygon class="cls-11" points="91.56 134.13 126.93 131.24 95.49 95.56 91.56 134.13"/><polygon class="cls-12" points="66.81 66.64 79.38 31.93 69.16 29.04 66.81 66.64"/><polygon class="cls-13" points="74.27 81.1 79.38 31.93 66.81 66.64 74.27 81.1"/><polygon class="cls-14" points="69.16 29.04 79.38 31.93 67.59 1.08 69.16 29.04"/><polygon class="cls-15" points="74.27 81.1 100.99 70.5 79.38 31.93 74.27 81.1"/><polygon class="cls-16" points="67.51 0 66.78 0 67.59 1.08 67.51 0"/><polygon class="cls-17" points="0.1 40.64 0.1 77.54 11 53.14 0.1 40.64"/><polygon class="cls-18" points="0.1 77.54 0.1 105.67 11 53.14 0.1 77.54"/><path class="cls-19" d="M.1,111.78a32.54,32.54,0,0,0,2.29,12L.1,106.94Z"/><polygon class="cls-20" points="25.54 78.21 39.3 121.59 41.26 73.39 25.54 78.21"/><polygon class="cls-21" points="25.54 78.21 11 53.14 0.1 105.67 0.1 106.06 25.54 78.21"/><polygon class="cls-22" points="11 53.14 25.54 78.21 34.19 20.37 11 53.14"/><path class="cls-23" d="M35.73,0h-3a32.79,32.79,0,0,0-6.4.63l7.84,19.73Z"/><polygon class="cls-24" points="25.54 78.21 41.26 73.39 34.19 20.37 25.54 78.21"/><polygon class="cls-25" points="47.6 0 35.73 0 34.19 20.37 47.6 0"/><polygon class="cls-26" points="14.93 14.58 11 53.14 34.19 20.37 14.93 14.58"/><path class="cls-27" d="M16.14,4.54l-.92.57-.29,9.47Z"/><path class="cls-28" d="M26.35.63A32.42,32.42,0,0,0,16.14,4.54l-1.2,10,19.26,5.78Z"/><path class="cls-29" d="M14.93,14.58,3.08,19a32.51,32.51,0,0,0-3,13.62v8L11,53.14Z"/><path class="cls-30" d="M10.38,8.88A32.71,32.71,0,0,0,3.08,19l11.85-4.44Z"/><path class="cls-31" d="M15.22,5.11a32.77,32.77,0,0,0-4.84,3.77l4.56,5.7Z"/><polygon class="cls-32" points="58.95 23.26 52.08 0 47.6 0 34.19 20.37 58.95 23.26"/><polygon class="cls-33" points="58.42 0 52.08 0 58.95 23.26 58.42 0"/><polygon class="cls-34" points="58.95 23.26 67.59 1.08 66.78 0 58.42 0 58.95 23.26"/><polygon class="cls-35" points="67.59 1.08 58.95 23.26 69.16 29.04 67.59 1.08"/><polygon class="cls-36" points="41.26 73.39 55.02 53.14 34.19 20.37 41.26 73.39"/><polygon class="cls-37" points="34.19 20.37 55.02 53.14 58.95 23.26 34.19 20.37"/><polygon class="cls-38" points="58.95 23.26 55.02 53.14 69.16 29.04 58.95 23.26"/><polygon class="cls-39" points="55.02 53.14 66.81 66.64 69.16 29.04 55.02 53.14"/><polygon class="cls-40" points="39.3 121.59 54.62 102.31 41.26 73.39 39.3 121.59"/><polygon class="cls-41" points="58.23 144.43 61.63 144.43 54.62 102.31 39.3 121.59 58.23 144.43"/><polygon class="cls-42" points="41.26 73.39 54.62 102.31 55.02 53.14 41.26 73.39"/><polygon class="cls-43" points="55.02 53.14 54.62 102.31 66.81 66.64 55.02 53.14"/><polygon class="cls-44" points="66.81 66.64 54.62 102.31 74.27 81.1 66.81 66.64"/><polygon class="cls-45" points="54.62 102.31 61.63 144.43 67.03 144.43 82.13 127.38 54.62 102.31"/><polygon class="cls-46" points="54.62 102.31 82.13 127.38 74.27 81.1 54.62 102.31"/><polygon class="cls-47" points="82.13 127.38 95.49 95.56 74.27 81.1 82.13 127.38"/><polygon class="cls-48" points="82.13 127.38 91.56 134.13 95.49 95.56 82.13 127.38"/><polygon class="cls-49" points="100.99 70.5 117.5 56.04 115.93 37.72 100.99 70.5"/><polygon class="cls-50" points="79.38 31.93 87.97 0 69.39 0 67.59 1.08 79.38 31.93"/><polygon class="cls-51" points="69.39 0 68.07 0 67.59 1.08 69.39 0"/><polygon class="cls-52" points="87.97 0 79.38 31.93 100.99 70.5 93.07 0 87.97 0"/><polygon class="cls-53" points="97.94 0 93.07 0 100.99 70.5 115.93 37.72 97.94 0"/><path class="cls-54" d="M97.94,0l18,37.72L117.82.55A32.79,32.79,0,0,0,111.89,0Z"/><polygon class="cls-55" points="117.5 56.04 125.36 18.44 115.93 37.72 117.5 56.04"/><path class="cls-56" d="M117.82.55l-1.89,37.17,9.43-19.28L118.47.67Z"/><path class="cls-57" d="M118.47.67l6.88,17.77L121.82,1.54A32.4,32.4,0,0,0,118.47.67Z"/><path class="cls-58" d="M125.36,18.44,125,2.76a32.4,32.4,0,0,0-3.19-1.21Z"/><path class="cls-59" d="M131.09,6.25A32.6,32.6,0,0,0,125,2.76l.34,15.68Z"/><polygon class="cls-60" points="141.07 47.36 125.36 18.44 117.5 56.04 141.07 47.36"/><path class="cls-61" d="M131.09,6.25l-5.73,12.19,15.72,28.92.81-27.59A32.75,32.75,0,0,0,131.09,6.25Z"/><polygon class="cls-62" points="139.11 73.39 144.53 72.85 144.53 52.18 141.07 47.36 139.11 73.39"/><path class="cls-63" d="M144.53,44V32.64a32.53,32.53,0,0,0-2.64-12.87l-.81,27.59Z"/><polygon class="cls-64" points="144.53 52.18 144.53 44.05 141.07 47.36 144.53 52.18"/><polygon class="cls-65" points="117.5 56.04 126.93 131.24 135.18 78.21 117.5 56.04"/><polygon class="cls-66" points="135.18 78.21 141.07 47.36 117.5 56.04 135.18 78.21"/><polygon class="cls-67" points="135.18 78.21 126.93 131.24 140.68 109.06 135.18 78.21"/><polygon class="cls-68" points="140.68 109.06 139.11 73.39 135.18 78.21 140.68 109.06"/><polygon class="cls-69" points="139.11 73.39 141.07 47.36 135.18 78.21 139.11 73.39"/><polygon class="cls-70" points="126.93 131.24 135.97 129.31 140.68 109.06 126.93 131.24"/><path class="cls-71" d="M136,129.31l1.37,2.91a32.6,32.6,0,0,0,4.86-8.31l-1.51-14.84Z"/><path class="cls-72" d="M136,129.31l-9,1.93-.54,9.79a32.71,32.71,0,0,0,8-5.62Z"/><path class="cls-73" d="M134.4,135.41a32.82,32.82,0,0,0,2.94-3.19L136,129.31Z"/><path class="cls-74" d="M91.56,134.13l3.67,10.3h16.65a32.65,32.65,0,0,0,8.79-1.21l6.25-12Z"/><path class="cls-75" d="M120.68,143.22a32.4,32.4,0,0,0,5.7-2.19l.54-9.79Z"/><polygon class="cls-76" points="92.28 144.43 95.23 144.43 91.56 134.13 92.28 144.43"/><polygon class="cls-77" points="67.03 144.43 79.13 144.43 82.13 127.38 67.03 144.43"/><polygon class="cls-78" points="79.13 144.43 85.97 144.43 91.56 134.13 82.13 127.38 79.13 144.43"/><polygon class="cls-79" points="85.97 144.43 92.28 144.43 91.56 134.13 85.97 144.43"/><polygon class="cls-80" points="41.31 144.43 49.87 144.43 39.3 121.59 41.31 144.43"/><polygon class="cls-81" points="39.3 121.59 49.87 144.43 58.23 144.43 39.3 121.59"/><polygon class="cls-82" points="38.23 144.43 41.31 144.43 39.3 121.59 38.23 144.43"/><path class="cls-83" d="M30.67,144.35c.69,0,1.38.07,2.08.07h5.48L39.3,121.6Z"/><path class="cls-84" d="M21.55,142.45a32.5,32.5,0,0,0,9.12,1.9L39.3,121.6Z"/><path class="cls-85" d="M20.57,142.07l1,.39L39.3,121.6,25.54,78.21Z"/><path class="cls-86" d="M.1,106.94l2.29,16.85a32.74,32.74,0,0,0,16.79,17.69L.1,106.36Z"/><path class="cls-87" d="M25.54,78.21.1,106.05v.31l19.08,35.11q.68.31,1.38.59Z"/><path class="cls-88" d="M91.58,44.39h5.67a2.83,2.83,0,0,0,2.86-2.86V30.19a2.84,2.84,0,0,0-2.86-2.86H91.58a2.82,2.82,0,0,0-2.81,2.86V41.53a2.82,2.82,0,0,0,2.81,2.86Z"/><path class="cls-88" d="M111.46,61.41c0-10.91-63.89-5.67-73.88-5.67a5.71,5.71,0,0,0-5.67,5.67v45.47a5.68,5.68,0,0,0,5.67,5.67h68.21a5.65,5.65,0,0,0,5.67-5.67Zm5.72-11.34v56.81a11.38,11.38,0,0,1-11.39,11.39H37.58a11.37,11.37,0,0,1-11.34-11.39V50.07A11.37,11.37,0,0,1,37.58,38.67h2.86v2.86a5.68,5.68,0,0,0,5.67,5.67h5.72a5.68,5.68,0,0,0,5.67-5.67V38.67H85.91v2.86a5.68,5.68,0,0,0,5.67,5.67h5.67A5.69,5.69,0,0,0,103,41.53V38.67h2.81a11.38,11.38,0,0,1,11.39,11.39Z"/><path class="cls-88" d="M46.11,44.39h5.72a2.82,2.82,0,0,0,2.81-2.86V30.19a2.82,2.82,0,0,0-2.81-2.86H46.11a2.82,2.82,0,0,0-2.81,2.86V41.53a2.82,2.82,0,0,0,2.81,2.86Z"/><path class="cls-89" d="M58.19,76.56c0-1.25-.09-2.76-.09-4.26h0c-.32,1.32-.75,2.8-1.15,4l-1.26,4H53.8l-1.11-4c-.34-1.22-.69-2.69-.94-4h0c-.06,1.4-.11,3-.19,4.3l-.18,3.94H49.19l.66-10.38H53l1,3.46c.32,1.2.65,2.49.88,3.71h0c.29-1.2.65-2.57,1-3.73L57,70.15h3.06l.57,10.38H58.35Z"/><path class="cls-89" d="M71.95,75.23c0,3.4-2.06,5.47-5.1,5.47S62,78.37,62,75.42C62,72.31,64,70,67,70S71.95,72.37,71.95,75.23Zm-7.5.14c0,2,1,3.46,2.52,3.46s2.49-1.51,2.49-3.53c0-1.86-.89-3.46-2.51-3.46S64.45,73.35,64.45,75.37Z"/><path class="cls-89" d="M83,75.23c0,3.4-2.06,5.47-5.1,5.47S73,78.37,73,75.42c0-3.11,2-5.44,5-5.44S83,72.37,83,75.23Zm-7.5.14c0,2,1,3.46,2.52,3.46s2.49-1.51,2.49-3.53c0-1.86-.89-3.46-2.51-3.46S75.49,73.35,75.49,75.37Z"/><path class="cls-89" d="M84.53,70.29a20.93,20.93,0,0,1,3.17-.22A6.67,6.67,0,0,1,92,71.18a4.59,4.59,0,0,1,1.76,3.91A5.26,5.26,0,0,1,92,79.3a7.45,7.45,0,0,1-4.79,1.34,20.28,20.28,0,0,1-2.66-.15Zm2.36,8.47a4.35,4.35,0,0,0,.82,0c2.12,0,3.51-1.15,3.51-3.63A3,3,0,0,0,88,71.88a4.86,4.86,0,0,0-1.06.09Z"/><path class="cls-89" d="M42,98.72a6.68,6.68,0,0,1-2.66.45c-3.59,0-5.43-2.23-5.43-5.19,0-3.54,2.52-5.51,5.67-5.51a6.11,6.11,0,0,1,2.56.46l-.48,1.86a5.07,5.07,0,0,0-2-.38,3.41,3.41,0,0,0,0,6.82,5.84,5.84,0,0,0,2-.34Z"/><path class="cls-89" d="M46.14,96.35,45.4,99H43l3.17-10.38h3.08L52.44,99H49.92l-.8-2.66Zm2.63-1.76-.65-2.2c-.18-.62-.37-1.39-.52-2h0c-.15.62-.31,1.4-.48,2l-.62,2.2Z"/><path class="cls-89" d="M53.83,88.63h2.36V97h4.13v2H53.83Z"/><path class="cls-89" d="M67.87,94.62H64.05v2.46h4.27V99H61.7V88.63h6.4v1.92h-4v2.16h3.82Z"/><path class="cls-89" d="M69.92,99V88.63h2.74l2.16,3.8A30.1,30.1,0,0,1,76.51,96h0a38.54,38.54,0,0,1-.2-4.33v-3h2.16V99H76.05l-2.22-4A38.55,38.55,0,0,1,72,91.34h0c.06,1.37.09,2.83.09,4.53V99Z"/><path class="cls-89" d="M80.55,88.77a20.93,20.93,0,0,1,3.17-.22A6.68,6.68,0,0,1,88,89.66a4.59,4.59,0,0,1,1.76,3.91A5.26,5.26,0,0,1,88,97.78a7.45,7.45,0,0,1-4.79,1.34A20.32,20.32,0,0,1,80.55,99Zm2.36,8.47a4.35,4.35,0,0,0,.82,0c2.12,0,3.51-1.15,3.51-3.63A3,3,0,0,0,84,90.36a4.91,4.91,0,0,0-1.06.09Z"/><path class="cls-89" d="M93.44,96.35,92.7,99H90.27l3.17-10.38h3.08L99.74,99H97.21l-.8-2.66Zm2.63-1.76-.65-2.2c-.18-.62-.37-1.39-.52-2h0c-.15.62-.31,1.4-.48,2l-.62,2.2Z"/><path class="cls-89" d="M101.13,88.77a20.63,20.63,0,0,1,3.13-.22,5.3,5.3,0,0,1,3.36.82,2.63,2.63,0,0,1,1,2.17,2.75,2.75,0,0,1-1.83,2.56v0a2.62,2.62,0,0,1,1.39,1.94c.32,1.17.65,2.52.85,2.92h-2.4a13,13,0,0,1-.72-2.42c-.28-1.29-.72-1.65-1.68-1.66h-.71V99h-2.32Zm2.32,4.46h.92c1.17,0,1.86-.58,1.86-1.49s-.65-1.43-1.72-1.45a5.94,5.94,0,0,0-1.06.08Z"/></g></g></svg>